:SAMPLES-PER-SECOND 30
:FULLY-SPECIFIED
:DEGREES
50
root  -34.946 46.922 -0.815809 -161.35 86.2388 -162.716
RightUpLeg  -10.0675 1.86648 5.22122
RightLeg  19.7753 6.43464 -1.04184
RightFoot  20.616 -1.62329 5.32613
RightToes  1.74622e-010 -3.18055e-015 8.94531e-016
Spine  -2.78131 -1.896 -2.60254
Spine1  14.7854 -2.91938 2.74435
HEad  -22.8166 2.38921 3.33588
LeftShoulder1  0 -2.69403e-036 -1.28585e-037
LeftArm  28.9412 55.3457 -79.2323
LeftForeArm  -46.2848 -24.1967 12.5385
LeftHand  0.937992 6.61644 -4.57711
RightShoulder  -2.48481e-017 0 -8.08114e-019
RightArm  42.4425 -58.9008 87.9779
RightForeArm  -55.3184 21.2436 -17.1082
RightHand  1.18742 -11.1324 -2.28906
LeftUpLeg  -12.3306 -7.86409 -0.108502
LeftLeg  19.4657 -1.61216 2.6649
LeftFoot  13.8008 1.26105 -5.03604
LeftToes  -8.00353e-011 5.68142e-011 4.78552e-012
51
root  -33.6362 46.9753 -0.789539 -157.951 86.3678 -160.087
RightUpLeg  -12.3877 0.0576768 5.11343
RightLeg  17.842 8.28157 -0.194934
RightFoot  18.7412 -1.88001 6.55633
RightToes  1.74622e-010 -3.18055e-015 8.94531e-016
Spine  -1.52479 -1.578 -1.49667
Spine1  13.8424 -2.35343 1.99912
HEad  -23.3035 2.22694 3.44723
LeftShoulder1  0 -2.69403e-036 -1.28585e-037
LeftArm  29.2853 55.0255 -79.0421
LeftForeArm  -45.6225 -24.0777 12.2287
LeftHand  0.951582 6.77114 -4.34349
RightShoulder  -2.48481e-017 0 -8.08114e-019
RightArm  42.2301 -58.4275 87.685
RightForeArm  -53.8552 21.1679 -16.7254
RightHand  1.16077 -10.9542 -2.15694
LeftUpLeg  -14.4179 -8.45305 -0.03523
LeftLeg  16.1335 -2.49445 2.19534
LeftFoot  12.8698 1.02686 -4.23156
LeftToes  -8.00353e-011 5.68142e-011 4.78552e-012
52
root  -32.3374 46.5829 -0.782744 -151.853 86.6465 -154.531
RightUpLeg  -14.8784 -0.256104 5.04879
RightLeg  16.798 9.83486 0.398171
RightFoot  16.8148 -2.06393 7.6865
RightToes  1.74622e-010 -3.18055e-015 8.94531e-016
Spine  -0.00954499 -1.29761 -0.259846
Spine1  12.7444 -1.819 1.26864
HEad  -24.4497 2.42709 3.21108
LeftShoulder1  0 -2.69403e-036 -1.28585e-037
LeftArm  28.5882 54.6704 -78.88
LeftForeArm  -43.3819 -23.7536 11.4997
LeftHand  0.94846 6.68131 -5.20173
RightShoulder  -2.48481e-017 0 -8.08114e-019
RightArm  40.2744 -57.7702 86.9914
RightForeArm  -52.4758 21.0754 -16.1443
RightHand  1.13472 -10.7928 -1.97793
LeftUpLeg  -16.327 -8.19287 -0.132868
LeftLeg  13.8347 -4.84667 2.0003
LeftFoot  12.9074 0.925 -3.78952
LeftToes  -8.00353e-011 5.68142e-011 4.78552e-012
53
root  -31.0162 45.7469 -0.790491 -147.717 86.67 -150.721
RightUpLeg  -17.3469 0.17804 4.78744
RightLeg  16.7114 10.1787 0.527568
RightFoot  14.8434 -1.90432 7.61569
RightToes  1.74622e-010 -3.18055e-015 8.94531e-016
Spine  1.55193 -1.27684 0.574694
Spine1  11.7051 -1.73994 1.2041
HEad  -25.9097 2.92986 2.75684
LeftShoulder1  0 -2.69403e-036 -1.28585e-037
LeftArm  27.1426 54.5773 -78.8865
LeftForeArm  -42.3853 -23.6412 11.3671
LeftHand  0.95118 6.64971 -6.00445
RightShoulder  -2.48481e-017 0 -8.08114e-019
RightArm  38.114 -56.744 85.7606
RightForeArm  -51.6745 21.0015 -15.7511
RightHand  1.13985 -10.858 -1.91425
LeftUpLeg  -18.0249 -8.52871 -0.0391335
LeftLeg  13.0235 -6.80344 1.62007
LeftFoot  13.2797 1.29683 -5.29536
LeftToes  -8.00353e-011 5.68142e-011 4.78552e-012
